<svg width="201" height="384" viewBox="0 0 201 384" fill="none" xmlns="http://www.w3.org/2000/svg">
<path d="M62.437 206.188C63.2735 205.102 63.8616 203.846 64.1601 202.508C64.4586 201.17 64.4602 199.783 64.1647 198.444C63.8691 197.106 63.2837 195.848 62.4496 194.76C61.6155 193.673 60.553 192.781 59.337 192.148L61.19 170.8L48.49 166.51L46.296 196.694C45.3689 198.807 45.2489 201.187 45.959 203.383C46.669 205.578 48.1597 207.437 50.1486 208.608C52.1375 209.778 54.4866 210.178 56.7508 209.732C59.015 209.287 61.0371 208.026 62.434 206.189L62.437 206.188Z" fill="#FFB8B8"/>
<path d="M125.8 372.162H114.373L108.936 328.062H125.809L125.8 372.162Z" fill="#FFB8B8"/>
<path d="M106.207 368.894H128.255V382.776H92.325C92.325 379.094 93.7876 375.563 96.3909 372.96C98.9943 370.357 102.525 368.894 106.207 368.894Z" fill="#2F2E41"/>
<path d="M99.855 342.9L88.755 345.628L72.949 304.105L89.334 300.078L99.855 342.9Z" fill="#FFB8B8"/>
<path d="M80.2011 344.01L101.61 338.74L104.928 352.22L70.0395 360.807C69.1595 357.232 69.7358 353.454 71.6415 350.304C73.5471 347.154 76.6261 344.89 80.2011 344.01Z" fill="#2F2E41"/>
<path d="M112.425 358.1C111.381 358.103 110.373 357.718 109.597 357.02C108.821 356.321 108.332 355.36 108.225 354.321L95.073 231.771L83.626 269.247L99.839 327.78C100.118 328.783 100.017 329.854 99.5542 330.787C99.0919 331.721 98.3012 332.45 97.334 332.836L84.444 337.992C83.9133 338.204 83.3451 338.307 82.7737 338.293C82.2023 338.28 81.6395 338.151 81.1194 337.913C80.5993 337.676 80.1326 337.337 79.7476 336.914C79.3625 336.492 79.067 335.996 78.879 335.456L59.01 278.448C56.8348 272.223 55.8724 265.64 56.175 259.053L58.948 197.53L131.991 200.623L130.851 352.838C130.837 353.898 130.429 354.914 129.705 355.688C128.982 356.463 127.995 356.939 126.939 357.024L112.754 358.093C112.643 358.098 112.534 358.1 112.425 358.1Z" fill="#2F2E41"/>
<path d="M100.328 61.374C113.893 61.374 124.889 50.3777 124.889 36.813C124.889 23.2483 113.893 12.252 100.328 12.252C86.7634 12.252 75.767 23.2483 75.767 36.813C75.767 50.3777 86.7634 61.374 100.328 61.374Z" fill="#FFB8B8"/>
<path d="M118.39 204.625C111.922 204.625 103.89 204.096 95.573 203.549C84.213 202.801 72.467 202.028 63.698 202.536C62.5139 202.654 61.3194 202.466 60.2285 201.991C59.1375 201.516 58.1865 200.769 57.466 199.822C48.427 188.248 62.366 143.114 62.966 141.199L74.31 90.731C76.81 79.631 84.781 71.443 95.123 69.363C104.803 67.419 114.166 71.294 120.171 79.738C120.49 80.186 120.808 80.6457 121.126 81.117C140.678 110.074 129.619 182.017 128.878 186.656C129.911 187.893 135.496 194.888 133.961 199.747C133.336 201.724 131.64 203.071 128.919 203.747C125.452 204.434 121.919 204.727 118.387 204.622L118.39 204.625Z" fill="#2CD4D9"/>
<path d="M64.094 204.647C61.869 204.647 58.868 203.826 54.822 202.147C53.083 201.423 47.791 199.222 54.216 143.075C57.372 115.495 61.893 88.107 61.938 87.834L61.981 87.57L62.225 87.46C62.341 87.407 73.887 82.115 75.895 75.314C75.9617 75.0787 76.0396 74.8503 76.1289 74.629C76.6814 73.1172 77.7964 71.8772 79.2412 71.1677C80.6859 70.4581 82.3489 70.334 83.883 70.821C85.5036 71.2083 86.9161 72.1976 87.8339 73.5883C88.7517 74.9789 89.106 76.6667 88.825 78.309C88.1259 82.7449 86.7813 87.0546 84.834 91.101C79.401 102.311 75.72 132.029 75.684 132.328C75.476 134.866 70.546 195 69.596 199.563C69.264 201.157 68.654 203.107 66.863 204.053C66.0038 204.477 65.0536 204.683 64.096 204.653L64.094 204.647Z" fill="#2F2E41"/>
<path d="M90.925 202.343C90.4762 202.343 90.0402 202.194 89.6859 201.918C82.4599 196.427 94.154 129.867 101.086 106.902C102.475 102.302 103.711 98.365 104.762 95.196C106.677 89.5096 108.013 83.6446 108.751 77.69C109.133 74.464 109.962 72.622 111.288 72.057C112.209 71.664 113.288 71.931 114.508 72.85C120.915 72.534 127.14 75.15 132.908 78.031L138.1 80.621L143.926 183.77C143.761 190.353 130.785 195 125.126 195.297C116.037 195.774 99.716 197.254 92.526 201.806C92.0548 202.134 91.4996 202.32 90.926 202.342L90.925 202.343Z" fill="#2F2E41"/>
<path d="M58.469 182.989C58.383 182.989 58.297 182.989 58.21 182.981L46.442 182.257C45.8561 182.221 45.2841 182.064 44.7624 181.795C44.2407 181.526 43.7807 181.151 43.4117 180.694C43.0427 180.238 42.7727 179.71 42.6191 179.143C42.4654 178.577 42.4313 177.984 42.519 177.404L47.844 142.125L57.868 92.625C58.1149 91.4057 58.6153 90.2519 59.3367 89.2383C60.0581 88.2248 60.9845 87.3742 62.0558 86.7417C63.127 86.1092 64.3193 85.7088 65.5552 85.5665C66.7911 85.4243 68.043 85.5433 69.23 85.916C71.2591 86.5634 72.9899 87.9149 74.11 89.7265C75.2301 91.5381 75.6656 93.6905 75.338 95.795L67.374 145.395L62.659 179.342C62.5141 180.352 62.0111 181.275 61.2417 181.945C60.4723 182.614 59.4889 182.985 58.469 182.989Z" fill="#2F2E41"/>
<path d="M98.67 144.374C99.3877 143.206 100.353 142.21 101.497 141.455C102.642 140.701 103.938 140.206 105.294 140.007C106.65 139.807 108.034 139.907 109.347 140.3C110.66 140.693 111.871 141.369 112.895 142.281L132.19 132.961L140.714 143.305L113.281 156.084C111.635 157.702 109.453 158.661 107.148 158.777C104.843 158.894 102.576 158.162 100.775 156.718C98.9736 155.275 97.7647 153.221 97.3768 150.946C96.9889 148.671 97.449 146.333 98.67 144.374Z" fill="#FFB8B8"/>
<path d="M125.474 154.383C124.524 154.383 123.602 154.063 122.855 153.475C122.109 152.887 121.582 152.066 121.36 151.142L118.56 139.492C118.346 138.616 118.419 137.694 118.768 136.863C119.118 136.031 119.725 135.334 120.5 134.873L137.4 124.757L128.76 93.123C128.013 90.414 128.355 87.5201 129.715 85.0607C131.074 82.6012 133.343 80.7718 136.034 79.9639C138.726 79.156 141.627 79.4339 144.116 80.7381C146.605 82.0423 148.485 84.2692 149.353 86.942L158.892 116.067C160.064 119.617 160.073 123.449 158.918 127.005C157.764 130.561 155.505 133.656 152.471 135.84L127.951 153.58C127.23 154.102 126.364 154.383 125.474 154.383Z" fill="#2F2E41"/>
<path d="M199.62 384H1.62C1.35478 384 1.10044 383.895 0.912903 383.707C0.725366 383.52 0.619995 383.265 0.619995 383C0.619995 382.735 0.725366 382.48 0.912903 382.293C1.10044 382.105 1.35478 382 1.62 382H199.62C199.885 382 200.14 382.105 200.327 382.293C200.515 382.48 200.62 382.735 200.62 383C200.62 383.265 200.515 383.52 200.327 383.707C200.14 383.895 199.885 384 199.62 384Z" fill="#CCCCCC"/>
<path d="M109.357 43.3598C109.357 43.3598 106.369 26.8336 99.5673 28.8081C92.7662 30.7826 75.2628 32.8029 75.2303 25.0199C75.1979 17.2369 91.7063 10.3577 101.439 11.2887C111.172 12.2198 127.722 15.0683 126.811 29.6652C126.081 38.8585 123.24 47.7594 118.508 55.6751L109.357 43.3598Z" fill="#2F2E41"/>
</svg>
