<svg width="788" height="429" viewBox="0 0 788 429" fill="none" xmlns="http://www.w3.org/2000/svg">
<g id="project 1" clip-path="url(#clip0_1_54)">
<path id="Vector" d="M72.7018 424.962L69.6191 424.945C68.6402 424.333 67.6567 423.728 66.6687 423.13C66.057 422.744 65.4382 422.372 64.8191 421.994C54.5935 415.748 44.304 409.758 33.9505 404.022C23.6064 398.282 13.2104 392.806 2.76231 387.594C2.48536 387.474 2.25941 387.26 2.12373 386.99C1.98804 386.72 1.95118 386.411 2.01958 386.117C2.03078 386.079 2.04813 386.042 2.07096 386.009C2.21669 385.736 2.54239 385.622 3.01775 385.856C4.29928 386.498 5.58821 387.141 6.86965 387.798C17.3463 393.098 27.7779 398.664 38.1646 404.493C48.5441 410.321 58.8645 416.405 69.1258 422.747C69.3415 422.878 69.5576 423.016 69.7733 423.148C70.7518 423.752 71.7234 424.357 72.7018 424.962Z" fill="white"/>
<path id="Vector_2" d="M585.905 415.034H573.645L567.813 367.746H585.907L585.905 415.034Z" fill="#A0616A"/>
<path id="Vector_3" d="M564.888 411.531H588.532V426.417H550.001C550.001 424.463 550.386 422.527 551.135 420.721C551.883 418.914 552.979 417.273 554.362 415.891C555.744 414.508 557.385 413.412 559.191 412.664C560.997 411.916 562.933 411.531 564.888 411.531Z" fill="#2F2E41"/>
<path id="Vector_4" d="M566.768 408.192L555.07 404.521L563.662 357.656L580.926 363.073L566.768 408.192Z" fill="#A0616A"/>
<path id="Vector_5" d="M547.764 398.557L570.323 405.636L565.866 419.84L529.102 408.303C529.688 406.438 530.635 404.706 531.889 403.207C533.144 401.708 534.682 400.47 536.415 399.565C538.147 398.66 540.042 398.105 541.989 397.932C543.936 397.759 545.899 397.971 547.764 398.557Z" fill="#2F2E41"/>
<g id="person2">
<path id="Vector_6" d="M713.398 331.61C713.398 323.878 684.297 317.61 648.398 317.61C612.5 317.61 583.398 323.878 583.398 331.61C583.398 336.566 595.363 340.917 613.398 343.405V420.11C613.398 421.834 614.083 423.488 615.302 424.707C616.521 425.926 618.174 426.61 619.898 426.61C621.622 426.61 623.275 425.926 624.494 424.707C625.713 423.488 626.398 421.834 626.398 420.11V344.786C633.27 345.319 640.675 345.61 648.398 345.61C656.121 345.61 663.526 345.319 670.398 344.786V420.11C670.398 421.834 671.083 423.488 672.302 424.707C673.521 425.926 675.174 426.61 676.898 426.61C678.622 426.61 680.275 425.926 681.494 424.707C682.713 423.488 683.398 421.834 683.398 420.11V343.405C701.434 340.917 713.398 336.566 713.398 331.61Z" fill="#CCCCCC"/>
<path id="Vector_7" d="M655.586 203.468C671.05 203.468 683.586 190.932 683.586 175.468C683.586 160.004 671.05 147.468 655.586 147.468C640.122 147.468 627.586 160.004 627.586 175.468C627.586 190.932 640.122 203.468 655.586 203.468Z" fill="#2F2E41"/>
<path id="Vector_8" d="M570.756 389.324C570.219 389.324 569.687 389.227 569.184 389.038L560.165 385.656C559.152 385.273 558.311 384.539 557.795 383.587C557.278 382.636 557.12 381.531 557.351 380.473C559.621 370.263 567.36 335.502 571.598 316.857C576.624 294.742 649.941 290.633 653.059 290.469L653.316 290.455L661.563 300.819C664.543 310.399 663.599 317.87 658.755 323.027C644.623 338.074 602.428 328.737 597.397 327.556L574.969 386.427C574.643 387.279 574.065 388.013 573.313 388.53C572.56 389.047 571.669 389.324 570.756 389.324Z" fill="#2F2E41"/>
<path id="Vector_9" d="M583.756 396.324C583.219 396.324 582.687 396.227 582.184 396.038L573.165 392.656C572.152 392.273 571.311 391.539 570.795 390.587C570.278 389.636 570.12 388.531 570.351 387.473C572.621 377.263 580.36 342.502 584.598 323.857C589.624 301.742 662.941 297.633 666.059 297.469L666.316 297.455L674.563 307.819C677.543 317.399 676.599 324.87 671.755 330.027C657.623 345.073 615.428 335.737 610.397 334.556L587.969 393.427C587.643 394.279 587.065 395.013 586.313 395.53C585.56 396.047 584.669 396.324 583.756 396.324Z" fill="#2F2E41"/>
<path id="Vector_10" d="M557.661 252.304C557.993 252.747 558.289 253.216 558.546 253.706L607.866 258.902L614.966 249.168L631.057 257.963L617.112 281.584L556.625 266.161C555.099 267.649 553.156 268.637 551.055 268.994C548.954 269.351 546.794 269.059 544.862 268.158C542.93 267.257 541.319 265.79 540.242 263.951C539.164 262.112 538.673 259.989 538.831 257.863C538.99 255.738 539.793 253.711 541.131 252.053C542.47 250.395 544.282 249.183 546.326 248.58C548.37 247.976 550.55 248.009 552.574 248.675C554.599 249.34 556.374 250.606 557.661 252.304Z" fill="#A0616A"/>
<path id="Vector_11" d="M672.274 311.786C671.561 311.784 670.859 311.612 670.225 311.285C660.363 306.271 641.158 297.586 623.35 295.769C622.741 295.709 622.151 295.522 621.618 295.221C621.084 294.919 620.62 294.51 620.255 294.019C619.882 293.522 619.616 292.954 619.472 292.35C619.329 291.746 619.311 291.119 619.421 290.508C621.028 281.612 624.714 258.961 624.239 240.807C624.1 235.225 625.863 229.761 629.24 225.315C632.617 220.868 637.407 217.702 642.821 216.339C646.081 215.479 649.392 214.826 652.734 214.385C656.576 213.898 660.478 214.318 664.128 215.611C667.778 216.903 671.074 219.033 673.753 221.829C676.432 224.625 678.419 228.009 679.555 231.711C680.691 235.413 680.944 239.329 680.294 243.147C677.118 261.96 673.916 288.236 676.699 306.579C676.827 307.401 676.724 308.243 676.403 309.01C676.082 309.778 675.555 310.441 674.88 310.928C674.124 311.483 673.212 311.783 672.274 311.786Z" fill="#2CD4D9"/>
<path id="Vector_12" d="M625.152 263.935C624.537 263.934 623.929 263.807 623.366 263.562L610.518 258C609.424 257.525 608.563 256.635 608.124 255.526C607.685 254.416 607.703 253.178 608.176 252.083L618.107 229.141C618.707 227.754 619.573 226.499 620.658 225.447C621.742 224.395 623.023 223.567 624.428 223.011C625.832 222.455 627.333 222.18 628.843 222.204C630.354 222.228 631.845 222.549 633.232 223.149C634.618 223.749 635.873 224.616 636.924 225.701C637.975 226.786 638.802 228.068 639.357 229.473C639.913 230.878 640.186 232.378 640.162 233.889C640.137 235.399 639.815 236.89 639.215 238.276L629.283 261.219C628.934 262.025 628.357 262.711 627.623 263.193C626.889 263.676 626.03 263.933 625.152 263.935Z" fill="#2CD4D9"/>
<path id="Vector_13" d="M654.562 206.58C668.127 206.58 679.123 195.584 679.123 182.019C679.123 168.454 668.127 157.458 654.562 157.458C640.997 157.458 630.001 168.454 630.001 182.019C630.001 195.584 640.997 206.58 654.562 206.58Z" fill="#A0616A"/>
<path id="Vector_14" d="M629.559 169.952C641.193 177.054 654.308 181.375 667.885 182.58L663.845 177.74C666.787 178.827 669.882 179.442 673.016 179.561C676.146 179.512 679.426 178.307 681.202 175.729C681.995 174.448 682.465 172.994 682.574 171.491C682.683 169.988 682.427 168.482 681.828 167.099C680.596 164.342 678.68 161.946 676.261 160.139C671.974 156.747 666.913 154.469 661.532 153.507C656.15 152.546 650.614 152.93 645.417 154.627C641.852 155.692 638.659 157.74 636.204 160.536C633.876 163.409 629.393 165.968 630.586 169.468L629.559 169.952Z" fill="#2F2E41"/>
<path id="Vector_15" d="M658.692 150.131C650.945 142.276 641.571 136.214 631.229 132.372C624.59 129.912 617.364 128.393 610.424 129.79C603.483 131.186 596.92 135.988 594.983 142.797C593.4 148.366 595.035 154.361 597.492 159.603C599.949 164.845 603.23 169.705 605.217 175.143C607.244 180.691 607.854 186.657 606.99 192.501C606.127 198.344 603.818 203.879 600.273 208.604C596.728 213.329 592.058 217.093 586.689 219.556C581.32 222.018 575.421 223.101 569.528 222.705C576.347 223.619 582.633 226.824 589.298 228.53C595.964 230.236 603.831 230.12 608.785 225.345C614.026 220.292 614.13 212.078 613.877 204.802C613.5 193.987 613.124 183.172 612.747 172.357C612.555 166.842 612.391 161.15 614.38 156.002C616.369 150.854 621.096 146.346 626.615 146.393C630.797 146.428 634.499 148.962 637.853 151.461C641.208 153.96 644.758 156.626 648.924 156.997C653.09 157.369 657.847 154.286 657.535 150.115" fill="#2F2E41"/>
<path id="Vector_16" d="M613.269 305.477C611.642 305.475 610.035 305.112 608.564 304.415C607.094 303.717 605.797 302.702 604.766 301.443C603.735 300.183 602.996 298.711 602.603 297.132C602.21 295.552 602.172 293.906 602.492 292.31C602.811 290.714 603.481 289.209 604.453 287.904C605.424 286.598 606.673 285.524 608.11 284.759C609.546 283.994 611.135 283.558 612.76 283.481C614.386 283.403 616.008 283.688 617.511 284.313C617.963 284.504 618.401 284.726 618.823 284.978L663.563 264.891L664.82 252.757L684.106 252.241L683.978 272.442C683.955 274.783 683.177 277.053 681.761 278.916C680.345 280.779 678.366 282.136 676.117 282.785L623.795 297.678C623.694 298.024 623.574 298.364 623.436 298.697C622.597 300.702 621.184 302.415 619.376 303.621C617.567 304.827 615.443 305.473 613.269 305.477Z" fill="#A0616A"/>
<path id="Vector_17" d="M682.473 262.144C681.924 262.421 681.325 262.583 680.711 262.62L666.737 263.479C665.546 263.551 664.376 263.147 663.482 262.357C662.588 261.567 662.045 260.455 661.97 259.264L660.436 234.311C660.341 232.803 660.544 231.29 661.034 229.86C661.523 228.429 662.29 227.11 663.291 225.976C664.291 224.843 665.505 223.918 666.864 223.254C668.222 222.59 669.698 222.201 671.207 222.108C672.716 222.015 674.228 222.221 675.657 222.713C677.087 223.205 678.405 223.974 679.537 224.977C680.669 225.979 681.592 227.195 682.253 228.554C682.915 229.914 683.302 231.39 683.392 232.899L684.926 257.852C684.979 258.728 684.775 259.601 684.34 260.364C683.904 261.126 683.255 261.745 682.473 262.144Z" fill="#2CD4D9"/>
<path id="Vector_18" d="M652.103 308H573.103C572.175 308 571.284 307.631 570.628 306.975C569.972 306.318 569.603 305.428 569.603 304.5C569.603 303.572 569.972 302.682 570.628 302.025C571.284 301.369 572.175 301 573.103 301H652.103C653.031 301 653.922 301.369 654.578 302.025C655.234 302.682 655.603 303.572 655.603 304.5C655.603 305.428 655.234 306.318 654.578 306.975C653.922 307.631 653.031 308 652.103 308Z" fill="#3F3D56"/>
<path id="Vector_19" d="M538.603 301.5V252.5C538.605 250.777 539.29 249.125 540.509 247.906C541.727 246.687 543.38 246.002 545.103 246H634.103C635.826 246.002 637.478 246.687 638.697 247.906C639.916 249.125 640.601 250.777 640.603 252.5V301.5C640.601 303.223 639.916 304.875 638.697 306.094C637.478 307.313 635.826 307.998 634.103 308H545.103C543.38 307.998 541.727 307.313 540.509 306.094C539.29 304.875 538.605 303.223 538.603 301.5Z" fill="#3F3D56"/>
</g>
<path id="Vector_20" d="M589.603 283C592.917 283 595.603 280.314 595.603 277C595.603 273.686 592.917 271 589.603 271C586.289 271 583.603 273.686 583.603 277C583.603 280.314 586.289 283 589.603 283Z" fill="white"/>
<g id="person1">
<path id="Vector_21" d="M276.781 219.337C275.97 218.111 274.901 217.076 273.648 216.308C272.395 215.539 270.988 215.055 269.528 214.888C268.067 214.722 266.588 214.878 265.194 215.345C263.8 215.813 262.526 216.58 261.46 217.593L229.706 201.203L231.68 219.667L261.532 232.401C263.352 234.078 265.725 235.028 268.2 235.073C270.674 235.117 273.079 234.252 274.959 232.642C276.838 231.032 278.062 228.788 278.398 226.336C278.734 223.884 278.158 221.393 276.781 219.337Z" fill="#FFB8B8"/>
<path id="Vector_22" d="M248.56 226.769C247.986 227.033 247.362 227.173 246.73 227.179C246.098 227.186 245.472 227.06 244.892 226.808L214.729 213.724C204.416 209.252 196.079 201.186 191.267 191.027L175.41 157.556C174.24 156.052 173.378 154.333 172.872 152.496C172.367 150.659 172.229 148.74 172.466 146.85C172.702 144.959 173.31 143.134 174.252 141.479C175.195 139.823 176.455 138.369 177.96 137.201C179.464 136.033 181.185 135.172 183.022 134.669C184.86 134.166 186.779 134.03 188.669 134.269C190.559 134.508 192.384 135.118 194.038 136.062C195.693 137.007 197.145 138.269 198.311 139.775L226.184 191.489L251.921 210.93C252.657 211.489 253.205 212.261 253.488 213.141C253.772 214.021 253.779 214.967 253.507 215.851L250.981 224.011C250.71 224.886 250.178 225.657 249.457 226.222C249.181 226.439 248.88 226.623 248.56 226.769Z" fill="#CCCCCC"/>
<path id="Vector_23" d="M174.712 118.192C188.277 118.192 199.273 107.196 199.273 93.6309C199.273 80.0662 188.277 69.0699 174.712 69.0699C161.148 69.0699 150.151 80.0662 150.151 93.6309C150.151 107.196 161.148 118.192 174.712 118.192Z" fill="#FFB8B8"/>
<path id="Vector_24" d="M184.661 415.827H196.92L202.753 368.539H184.658L184.661 415.827Z" fill="#FFB8B8"/>
<path id="Vector_25" d="M220.565 427.21L182.034 427.211L182.033 412.325L205.677 412.323C209.625 412.323 213.412 413.892 216.204 416.683C218.996 419.475 220.565 423.261 220.565 427.21Z" fill="#2F2E41"/>
<path id="Vector_26" d="M144.661 415.827H156.92L162.753 368.539H144.658L144.661 415.827Z" fill="#FFB8B8"/>
<path id="Vector_27" d="M180.565 427.21L142.034 427.211L142.033 412.325L165.677 412.323C169.625 412.323 173.412 413.892 176.204 416.683C178.996 419.475 180.565 423.261 180.565 427.21Z" fill="#2F2E41"/>
<path id="Vector_28" d="M140.38 402.292C139.957 401.809 139.643 401.242 139.458 400.629C139.272 400.015 139.22 399.369 139.305 398.733L160.769 237.748L214.098 246.804L219.789 243.389L205.072 396.133C204.95 397.165 204.475 398.122 203.729 398.844C202.983 399.566 202.01 400.009 200.976 400.097L184.828 401.443C184.186 401.497 183.54 401.412 182.934 401.194C182.327 400.977 181.775 400.631 181.313 400.182C180.852 399.732 180.493 399.189 180.259 398.588C180.026 397.988 179.925 397.344 179.962 396.701L184.142 323.959C184.15 323.835 184.111 323.713 184.034 323.616C183.956 323.52 183.846 323.455 183.724 323.435C183.601 323.415 183.476 323.442 183.372 323.509C183.268 323.576 183.193 323.679 183.16 323.798L162.477 400.499C162.219 401.453 161.653 402.297 160.868 402.898C160.083 403.5 159.122 403.826 158.133 403.828H143.766C143.124 403.828 142.49 403.691 141.907 403.426C141.323 403.161 140.802 402.774 140.38 402.292Z" fill="#2F2E41"/>
<path id="Vector_29" d="M177.312 249.016C176.7 248.462 175.913 248.14 175.088 248.105C174.263 248.071 173.452 248.326 172.796 248.828L162.134 257.121C161.554 257.573 160.872 257.877 160.147 258.004C159.422 258.131 158.677 258.079 157.978 257.851C157.278 257.623 156.645 257.227 156.134 256.698C155.623 256.168 155.25 255.522 155.047 254.814C149.817 236.499 137.968 190.396 140.887 157.948C142.542 139.555 158.425 125.577 176.292 126.75C188.508 127.564 196.544 134.611 200.178 147.694C209.101 179.816 218.907 238.738 220.782 250.224C220.93 251.115 220.805 252.03 220.424 252.849C220.042 253.668 219.422 254.353 218.645 254.813C213.601 257.842 207.837 259.464 201.953 259.51C194.834 259.51 186.298 257.032 177.312 249.016Z" fill="#CCCCCC"/>
<path id="Vector_30" d="M181.335 260.443C181.455 258.978 181.251 257.504 180.739 256.126C180.228 254.748 179.42 253.499 178.373 252.466C177.327 251.434 176.066 250.644 174.681 250.151C173.296 249.659 171.82 249.476 170.356 249.616L155.484 217.123L145.643 232.87L161.274 261.312C161.672 263.755 162.952 265.967 164.872 267.529C166.792 269.091 169.218 269.895 171.691 269.788C174.163 269.681 176.511 268.67 178.289 266.948C180.066 265.226 181.15 262.911 181.335 260.443Z" fill="#FFB8B8"/>
<path id="Vector_31" d="M154.543 248.876C153.928 248.728 153.351 248.454 152.85 248.069C152.348 247.684 151.933 247.198 151.632 246.642L135.973 217.733C130.617 207.85 129.034 196.357 131.518 185.394L139.697 149.271C139.704 147.366 140.087 145.482 140.823 143.725C141.559 141.968 142.635 140.373 143.988 139.032C145.341 137.691 146.944 136.63 148.708 135.909C150.471 135.188 152.359 134.822 154.264 134.831C156.169 134.841 158.053 135.225 159.809 135.963C161.566 136.701 163.159 137.778 164.499 139.132C165.838 140.487 166.898 142.092 167.617 143.855C168.336 145.619 168.701 147.508 168.689 149.413L158.708 207.305L166.962 238.486C167.196 239.381 167.151 240.326 166.831 241.193C166.511 242.061 165.932 242.809 165.173 243.338L158.15 248.199C157.397 248.72 156.502 248.999 155.586 248.999C155.235 248.999 154.885 248.958 154.543 248.876Z" fill="#CCCCCC"/>
<path id="Vector_32" opacity="0.2" d="M166.697 173.828L157.697 211.828L170.697 243.828L161.697 212.828L166.697 173.828Z" fill="black"/>
<path id="Vector_33" d="M160.697 113.828C158.512 113.868 156.341 113.476 154.309 112.672C153.415 112.327 152.486 112.044 151.594 111.699C143.712 108.654 138.52 100.26 138.334 91.813C138.148 83.3655 142.523 75.1665 149.019 69.7632C155.515 64.3598 163.929 61.5857 172.354 60.9442C181.429 60.2532 191.648 62.5546 196.719 70.1124C198.069 72.1242 199.013 74.565 198.213 76.994C197.974 77.727 197.546 78.3842 196.973 78.8999C194.708 80.9148 192.45 79.3998 190.141 79.2659C186.968 79.0819 184.118 81.6505 183.094 84.6595C182.069 87.6685 182.52 90.9811 183.347 94.0502C183.977 95.8969 184.375 97.8151 184.53 99.7603C184.597 100.736 184.413 101.712 183.997 102.596C183.581 103.481 182.945 104.245 182.151 104.815C180.168 106.014 177.564 105.32 175.58 104.123C173.596 102.927 171.882 101.263 169.739 100.382C167.596 99.5016 164.716 99.6969 163.469 101.649C163.072 102.36 162.804 103.135 162.676 103.938C161.558 109.033 161.815 108.733 160.697 113.828Z" fill="#2F2E41"/>
</g>
<path id="piso" d="M12.582 428.128H785.876C786.192 428.128 786.495 428.002 786.718 427.779C786.941 427.556 787.067 427.253 787.067 426.937C787.067 426.621 786.941 426.318 786.718 426.095C786.495 425.872 786.192 425.746 785.876 425.746H12.582C12.4253 425.746 12.2701 425.776 12.1252 425.836C11.9804 425.896 11.8487 425.983 11.7378 426.094C11.6269 426.204 11.5388 426.336 11.4788 426.481C11.4187 426.625 11.3878 426.78 11.3878 426.937C11.3878 427.094 11.4187 427.249 11.4788 427.393C11.5388 427.538 11.6269 427.67 11.7378 427.78C11.8487 427.891 11.9804 427.978 12.1252 428.038C12.2701 428.098 12.4253 428.128 12.582 428.128Z" fill="#3F3D56"/>
<g id="card4">
<path id="Vector_34" d="M260.946 227.49C260.532 226.966 260.243 226.355 260.101 225.702C259.959 225.05 259.967 224.373 260.126 223.724C263.917 207.845 263.917 191.297 260.125 175.418C259.967 174.77 259.959 174.093 260.101 173.44C260.243 172.788 260.532 172.176 260.946 171.652C261.352 171.136 261.87 170.718 262.461 170.432C263.052 170.146 263.7 169.998 264.357 170H304.884C305.92 170.002 306.921 170.371 307.71 171.043C308.498 171.714 309.023 172.643 309.191 173.665C311.834 190.835 311.834 208.308 309.191 225.478C309.023 226.5 308.498 227.429 307.71 228.1C306.921 228.771 305.92 229.141 304.884 229.143H264.357C263.7 229.145 263.052 228.997 262.461 228.711C261.87 228.424 261.352 228.007 260.946 227.49Z" fill="#2CD4D9"/>
<path id="Vector_35" d="M297.063 191.822H275.714C274.919 191.821 274.156 191.505 273.594 190.942C273.031 190.38 272.715 189.617 272.714 188.822V187.548C272.715 186.752 273.031 185.99 273.594 185.427C274.156 184.865 274.919 184.549 275.714 184.548H297.063C297.859 184.549 298.621 184.865 299.184 185.427C299.746 185.99 300.063 186.752 300.063 187.548V188.822C300.063 189.617 299.746 190.38 299.184 190.942C298.621 191.505 297.859 191.821 297.063 191.822Z" fill="white"/>
<path id="Vector_36" d="M297.063 204.369H275.714C274.919 204.368 274.156 204.052 273.594 203.489C273.031 202.927 272.715 202.164 272.714 201.369V200.095C272.715 199.3 273.031 198.537 273.594 197.975C274.156 197.412 274.919 197.096 275.714 197.095H297.063C297.859 197.096 298.621 197.412 299.184 197.975C299.746 198.537 300.063 199.3 300.063 200.095V201.369C300.063 202.164 299.746 202.927 299.184 203.489C298.621 204.052 297.859 204.368 297.063 204.369Z" fill="white"/>
</g>
<g id="card5">
<g id="Vector_37" filter="url(#filter0_d_1_54)">
<path d="M374.931 215.561C374.524 215.046 374.239 214.444 374.099 213.802C373.959 213.16 373.968 212.494 374.124 211.856C377.853 196.234 377.853 179.953 374.123 164.331C373.968 163.692 373.959 163.027 374.099 162.385C374.239 161.743 374.524 161.141 374.931 160.626C375.33 160.117 375.839 159.707 376.421 159.425C377.002 159.143 377.64 158.998 378.286 159H418.159C419.178 159.002 420.163 159.365 420.939 160.026C421.714 160.686 422.231 161.6 422.396 162.606C424.997 179.498 424.997 196.689 422.396 213.581C422.231 214.587 421.714 215.501 420.939 216.161C420.163 216.821 419.178 217.185 418.159 217.187H378.286C377.64 217.189 377.002 217.043 376.421 216.762C375.839 216.48 375.33 216.069 374.931 215.561Z" fill="#5333ED"/>
<path d="M375.325 215.252L375.323 215.251C374.963 214.795 374.711 214.263 374.588 213.695C374.464 213.128 374.471 212.539 374.609 211.975L374.61 211.972C378.358 196.274 378.358 179.913 374.61 164.215L374.61 164.215L374.609 164.212C374.471 163.648 374.464 163.059 374.588 162.491C374.711 161.924 374.963 161.392 375.323 160.936L375.323 160.936L375.325 160.934C375.676 160.486 376.126 160.124 376.639 159.875C377.152 159.626 377.715 159.498 378.285 159.5H378.286H418.158C419.058 159.502 419.929 159.823 420.615 160.407C421.3 160.99 421.756 161.797 421.902 162.684C424.495 179.524 424.495 196.662 421.902 213.502C421.756 214.39 421.3 215.197 420.615 215.78C419.929 216.364 419.058 216.685 418.158 216.687L378.286 216.687L378.285 216.687C377.715 216.689 377.152 216.56 376.639 216.312C376.126 216.063 375.676 215.701 375.325 215.252Z" stroke="#5333ED"/>
</g>
<path id="Vector_38" d="M409.958 178.426H389.034C388.239 178.425 387.476 178.109 386.914 177.547C386.352 176.984 386.035 176.222 386.034 175.426V174.254C386.035 173.458 386.352 172.696 386.914 172.133C387.476 171.571 388.239 171.255 389.034 171.254H409.958C410.753 171.255 411.516 171.571 412.078 172.133C412.64 172.696 412.957 173.458 412.958 174.254V175.426C412.957 176.222 412.64 176.984 412.078 177.547C411.516 178.109 410.753 178.425 409.958 178.426Z" fill="white"/>
<path id="Vector_39" d="M409.958 193.24H389.034C388.239 193.239 387.476 192.922 386.914 192.36C386.352 191.798 386.035 191.035 386.034 190.24V189.067C386.035 188.272 386.352 187.509 386.914 186.947C387.476 186.384 388.239 186.068 389.034 186.067H409.958C410.753 186.068 411.516 186.384 412.078 186.947C412.64 187.509 412.957 188.272 412.958 189.067V190.24C412.957 191.035 412.64 191.798 412.078 192.36C411.516 192.922 410.753 193.239 409.958 193.24Z" fill="white"/>
<path id="Vector_40" d="M409.958 208.053H389.034C388.239 208.052 387.476 207.736 386.914 207.173C386.352 206.611 386.035 205.848 386.034 205.053V203.881C386.035 203.085 386.352 202.323 386.914 201.76C387.476 201.198 388.239 200.882 389.034 200.881H409.958C410.753 200.882 411.516 201.198 412.078 201.76C412.64 202.323 412.957 203.085 412.958 203.881V205.053C412.957 205.848 412.64 206.611 412.078 207.173C411.516 207.736 410.753 208.052 409.958 208.053Z" fill="white"/>
</g>
<g id="card1">
<path id="Vector_41" d="M323.931 66.5605C323.523 66.0451 323.239 65.4435 323.099 64.8016C322.959 64.1596 322.968 63.4942 323.124 62.856C326.853 47.2338 326.853 30.953 323.124 15.3308C322.968 14.6926 322.959 14.0272 323.099 13.3852C323.239 12.7433 323.523 12.1417 323.931 11.6263C324.33 11.1178 324.839 10.707 325.42 10.4252C326.002 10.1434 326.64 9.99797 327.286 10H367.159C368.177 10.0021 369.162 10.3656 369.938 11.0259C370.714 11.6862 371.231 12.6003 371.396 13.6057C373.997 30.498 373.997 47.6888 371.396 64.5811C371.231 65.5864 370.714 66.5006 369.938 67.1609C369.162 67.8212 368.177 68.1847 367.159 68.1868H327.286C326.64 68.1888 326.002 68.0434 325.42 67.7616C324.839 67.4798 324.33 67.069 323.931 66.5605Z" fill="#E6E6E6"/>
<path id="Vector_42" d="M359.136 31.895H338.213C337.417 31.8942 336.655 31.5778 336.092 31.0154C335.53 30.453 335.214 29.6904 335.213 28.895V27.7227C335.214 26.9273 335.53 26.1647 336.092 25.6023C336.655 25.0399 337.417 24.7235 338.213 24.7227H359.136C359.931 24.7235 360.694 25.0399 361.256 25.6023C361.819 26.1647 362.135 26.9273 362.136 27.7227V28.895C362.135 29.6904 361.819 30.453 361.256 31.0154C360.694 31.5778 359.931 31.8942 359.136 31.895Z" fill="white"/>
</g>
<g id="card3">
<path id="Vector_43" d="M395.951 129.581C393.35 112.689 393.35 95.498 395.951 78.6057C396.115 77.6003 396.632 76.6861 397.408 76.0257C398.184 75.3654 399.169 75.0019 400.187 75H440.06C440.706 74.998 441.344 75.1434 441.926 75.4252C442.507 75.707 443.017 76.1178 443.415 76.6263C443.823 77.1417 444.107 77.7433 444.247 78.3852C444.387 79.0272 444.379 79.6926 444.223 80.3308C440.493 95.953 440.493 112.234 444.222 127.856C444.379 128.494 444.387 129.16 444.247 129.802C444.107 130.444 443.823 131.045 443.415 131.561C443.017 132.069 442.507 132.48 441.926 132.762C441.344 133.043 440.706 133.189 440.06 133.187H400.187C399.169 133.185 398.184 132.821 397.408 132.161C396.632 131.501 396.115 130.586 395.951 129.581Z" fill="#2CD4D9"/>
<path id="Vector_44" d="M428.518 100.911H407.594C406.799 100.911 406.037 100.594 405.474 100.032C404.912 99.4693 404.595 98.7068 404.594 97.9114V96.739C404.595 95.9437 404.912 95.1811 405.474 94.6187C406.037 94.0563 406.799 93.7399 407.594 93.739H428.518C429.313 93.7399 430.076 94.0563 430.638 94.6187C431.201 95.1811 431.517 95.9437 431.518 96.739V97.9114C431.517 98.7068 431.201 99.4693 430.638 100.032C430.076 100.594 429.313 100.911 428.518 100.911Z" fill="white"/>
</g>
<g id="card2">
<path id="Vector_45" d="M242.951 110.581C240.35 93.6888 240.35 76.498 242.951 59.6057C243.115 58.6003 243.632 57.6861 244.408 57.0257C245.184 56.3654 246.169 56.0019 247.187 56H287.06C287.706 55.998 288.344 56.1434 288.926 56.4252C289.507 56.707 290.017 57.1178 290.415 57.6263C290.823 58.1417 291.107 58.7433 291.247 59.3852C291.387 60.0272 291.379 60.6926 291.223 61.3308C287.493 76.953 287.493 93.2338 291.222 108.856C291.379 109.494 291.387 110.16 291.247 110.802C291.107 111.444 290.823 112.045 290.415 112.561C290.017 113.069 289.507 113.48 288.926 113.762C288.344 114.043 287.706 114.189 287.06 114.187H247.187C246.169 114.185 245.184 113.821 244.408 113.161C243.632 112.501 243.115 111.586 242.951 110.581Z" fill="#362289"/>
<path id="Vector_46" d="M275.518 81.9114H254.594C253.799 81.9105 253.037 81.5942 252.474 81.0318C251.912 80.4693 251.595 79.7068 251.594 78.9114V77.739C251.595 76.9437 251.912 76.1811 252.474 75.6187C253.037 75.0563 253.799 74.7399 254.594 74.739H275.518C276.313 74.7399 277.076 75.0563 277.638 75.6187C278.201 76.1811 278.517 76.9437 278.518 77.739V78.9114C278.517 79.7068 278.201 80.4693 277.638 81.0318C277.076 81.5942 276.313 81.9105 275.518 81.9114Z" fill="white"/>
</g>
</g>
<defs>
<filter id="filter0_d_1_54" x="370" y="159" width="58.3464" height="66.1868" filterUnits="userSpaceOnUse" color-interpolation-filters="sRGB">
<feFlood flood-opacity="0" result="BackgroundImageFix"/>
<feColorMatrix in="SourceAlpha" type="matrix" values="0 0 0 0 0 0 0 0 0 0 0 0 0 0 0 0 0 0 127 0" result="hardAlpha"/>
<feOffset dy="4"/>
<feGaussianBlur stdDeviation="2"/>
<feComposite in2="hardAlpha" operator="out"/>
<feColorMatrix type="matrix" values="0 0 0 0 0 0 0 0 0 0 0 0 0 0 0 0 0 0 0.25 0"/>
<feBlend mode="normal" in2="BackgroundImageFix" result="effect1_dropShadow_1_54"/>
<feBlend mode="normal" in="SourceGraphic" in2="effect1_dropShadow_1_54" result="shape"/>
</filter>
<clipPath id="clip0_1_54">
<rect width="787.067" height="428.128" fill="white"/>
</clipPath>
</defs>
</svg>
